<mxfile host="app.diagrams.net" agent="Mozilla/5.0 (Windows NT 10.0; Win64; x64) AppleWebKit/537.36 (KHTML, like Gecko) Chrome/139.0.0.0 Safari/537.36" version="28.1.1">
  <diagram name="Page-1" id="xkV-_-Wiw6DP2UkErfuR">
    <mxGraphModel dx="1042" dy="535" grid="1" gridSize="10" guides="1" tooltips="1" connect="1" arrows="1" fold="1" page="1" pageScale="1" pageWidth="850" pageHeight="1100" math="0" shadow="0">
      <root>
        <mxCell id="0" />
        <mxCell id="1" parent="0" />
        <mxCell id="gokPzpeym1dHf8ekCpsL-2" value="" style="edgeStyle=orthogonalEdgeStyle;rounded=0;orthogonalLoop=1;jettySize=auto;html=1;" edge="1" parent="1">
          <mxGeometry relative="1" as="geometry">
            <mxPoint x="410" y="100" as="sourcePoint" />
            <mxPoint x="410" y="110" as="targetPoint" />
          </mxGeometry>
        </mxCell>
        <mxCell id="gokPzpeym1dHf8ekCpsL-5" value="" style="edgeStyle=orthogonalEdgeStyle;rounded=0;orthogonalLoop=1;jettySize=auto;html=1;" edge="1" parent="1">
          <mxGeometry relative="1" as="geometry">
            <mxPoint x="410" y="220" as="sourcePoint" />
            <mxPoint x="410" y="230" as="targetPoint" />
          </mxGeometry>
        </mxCell>
        <mxCell id="gokPzpeym1dHf8ekCpsL-11" value="joins" style="rhombus;whiteSpace=wrap;html=1;fillColor=#6d8764;fontColor=#ffffff;strokeColor=#3A5431;fontStyle=1;fontSize=19;" vertex="1" parent="1">
          <mxGeometry x="360" y="220" width="120" height="80" as="geometry" />
        </mxCell>
        <mxCell id="gokPzpeym1dHf8ekCpsL-14" value="" style="endArrow=none;html=1;rounded=0;" edge="1" parent="1">
          <mxGeometry width="50" height="50" relative="1" as="geometry">
            <mxPoint x="540" y="260" as="sourcePoint" />
            <mxPoint x="480" y="260" as="targetPoint" />
          </mxGeometry>
        </mxCell>
        <mxCell id="gokPzpeym1dHf8ekCpsL-15" value="" style="endArrow=none;html=1;rounded=0;entryX=0;entryY=0.5;entryDx=0;entryDy=0;" edge="1" parent="1" target="gokPzpeym1dHf8ekCpsL-11">
          <mxGeometry width="50" height="50" relative="1" as="geometry">
            <mxPoint x="310" y="260" as="sourcePoint" />
            <mxPoint x="450" y="260" as="targetPoint" />
          </mxGeometry>
        </mxCell>
        <mxCell id="gokPzpeym1dHf8ekCpsL-16" value="Course" style="rounded=0;whiteSpace=wrap;html=1;fillColor=#e51400;fontColor=#ffffff;strokeColor=#B20000;fontStyle=1;fontSize=20;" vertex="1" parent="1">
          <mxGeometry x="520" y="240" width="110" height="50" as="geometry" />
        </mxCell>
        <mxCell id="gokPzpeym1dHf8ekCpsL-17" value="Student" style="rounded=0;whiteSpace=wrap;html=1;fillColor=#e51400;fontColor=#ffffff;strokeColor=#B20000;fontStyle=1;fontSize=20;" vertex="1" parent="1">
          <mxGeometry x="200" y="240" width="110" height="50" as="geometry" />
        </mxCell>
        <mxCell id="gokPzpeym1dHf8ekCpsL-18" value="" style="endArrow=none;html=1;rounded=0;entryX=1;entryY=0.5;entryDx=0;entryDy=0;" edge="1" parent="1" target="gokPzpeym1dHf8ekCpsL-16">
          <mxGeometry width="50" height="50" relative="1" as="geometry">
            <mxPoint x="690" y="265" as="sourcePoint" />
            <mxPoint x="450" y="260" as="targetPoint" />
          </mxGeometry>
        </mxCell>
        <mxCell id="gokPzpeym1dHf8ekCpsL-21" value="" style="endArrow=none;html=1;rounded=0;entryX=0;entryY=0.5;entryDx=0;entryDy=0;" edge="1" parent="1" target="gokPzpeym1dHf8ekCpsL-17">
          <mxGeometry width="50" height="50" relative="1" as="geometry">
            <mxPoint x="140" y="265" as="sourcePoint" />
            <mxPoint x="450" y="260" as="targetPoint" />
          </mxGeometry>
        </mxCell>
        <mxCell id="gokPzpeym1dHf8ekCpsL-22" value="Roll No" style="ellipse;whiteSpace=wrap;html=1;fillColor=#76608a;fontColor=#ffffff;strokeColor=#432D57;fontStyle=1;fontSize=20;" vertex="1" parent="1">
          <mxGeometry x="30" y="232.5" width="110" height="65" as="geometry" />
        </mxCell>
        <mxCell id="gokPzpeym1dHf8ekCpsL-23" value="Major" style="ellipse;whiteSpace=wrap;html=1;fillColor=#76608a;fontColor=#ffffff;strokeColor=#432D57;fontStyle=1;fontSize=20;" vertex="1" parent="1">
          <mxGeometry x="670" y="230" width="110" height="67.5" as="geometry" />
        </mxCell>
        <mxCell id="gokPzpeym1dHf8ekCpsL-24" value="" style="endArrow=none;html=1;rounded=0;entryX=0.5;entryY=0;entryDx=0;entryDy=0;" edge="1" parent="1" target="gokPzpeym1dHf8ekCpsL-17">
          <mxGeometry width="50" height="50" relative="1" as="geometry">
            <mxPoint x="255" y="160" as="sourcePoint" />
            <mxPoint x="450" y="260" as="targetPoint" />
          </mxGeometry>
        </mxCell>
        <mxCell id="gokPzpeym1dHf8ekCpsL-25" value="" style="endArrow=none;html=1;rounded=0;entryX=0.5;entryY=1;entryDx=0;entryDy=0;" edge="1" parent="1" target="gokPzpeym1dHf8ekCpsL-17">
          <mxGeometry width="50" height="50" relative="1" as="geometry">
            <mxPoint x="255" y="360" as="sourcePoint" />
            <mxPoint x="450" y="260" as="targetPoint" />
          </mxGeometry>
        </mxCell>
        <mxCell id="gokPzpeym1dHf8ekCpsL-26" value="" style="endArrow=none;html=1;rounded=0;entryX=0.5;entryY=0;entryDx=0;entryDy=0;" edge="1" parent="1" target="gokPzpeym1dHf8ekCpsL-16">
          <mxGeometry width="50" height="50" relative="1" as="geometry">
            <mxPoint x="575" y="160" as="sourcePoint" />
            <mxPoint x="450" y="260" as="targetPoint" />
          </mxGeometry>
        </mxCell>
        <mxCell id="gokPzpeym1dHf8ekCpsL-27" value="" style="endArrow=none;html=1;rounded=0;entryX=0.5;entryY=1;entryDx=0;entryDy=0;" edge="1" parent="1" target="gokPzpeym1dHf8ekCpsL-16">
          <mxGeometry width="50" height="50" relative="1" as="geometry">
            <mxPoint x="575" y="360" as="sourcePoint" />
            <mxPoint x="450" y="260" as="targetPoint" />
          </mxGeometry>
        </mxCell>
        <mxCell id="gokPzpeym1dHf8ekCpsL-30" value="Minor" style="ellipse;whiteSpace=wrap;html=1;fillColor=#76608a;fontColor=#ffffff;strokeColor=#432D57;fontStyle=1;fontSize=20;" vertex="1" parent="1">
          <mxGeometry x="510" y="350" width="127.5" height="70" as="geometry" />
        </mxCell>
        <mxCell id="gokPzpeym1dHf8ekCpsL-31" value="Title" style="ellipse;whiteSpace=wrap;html=1;fillColor=#76608a;fontColor=#ffffff;strokeColor=#432D57;fontStyle=1;fontSize=20;" vertex="1" parent="1">
          <mxGeometry x="510" y="70" width="127.5" height="80" as="geometry" />
        </mxCell>
        <mxCell id="gokPzpeym1dHf8ekCpsL-32" value="Email" style="ellipse;whiteSpace=wrap;html=1;fillColor=#76608a;fontColor=#ffffff;strokeColor=#432D57;fontStyle=1;fontSize=20;" vertex="1" parent="1">
          <mxGeometry x="195" y="350" width="125" height="70" as="geometry" />
        </mxCell>
        <mxCell id="gokPzpeym1dHf8ekCpsL-33" value="Name" style="ellipse;whiteSpace=wrap;html=1;fillColor=#76608a;fontColor=light-dark(#ffffff, #1b1d1e);strokeColor=#432D57;fontStyle=1;fontSize=20;" vertex="1" parent="1">
          <mxGeometry x="190" y="80" width="125" height="80" as="geometry" />
        </mxCell>
      </root>
    </mxGraphModel>
  </diagram>
</mxfile>
